<mxfile host="app.diagrams.net" agent="Mozilla/5.0 (Windows NT 10.0; Win64; x64) AppleWebKit/537.36 (KHTML, like Gecko) Chrome/131.0.0.0 Safari/537.36 OPR/116.0.0.0" version="26.0.16">
  <diagram name="Page-1" id="MOZeRijxzdeP_rvi35Gk">
    <mxGraphModel dx="2003" dy="663" grid="1" gridSize="10" guides="1" tooltips="1" connect="1" arrows="1" fold="1" page="1" pageScale="1" pageWidth="850" pageHeight="1100" math="0" shadow="0">
      <root>
        <mxCell id="0" />
        <mxCell id="1" parent="0" />
        <mxCell id="0HTOlt0P8ObDnsiu8-Vs-1" value="frame" style="shape=umlFrame;whiteSpace=wrap;html=1;pointerEvents=0;fillColor=light-dark(#EBEBEB,var(--ge-dark-color, #121212));" vertex="1" parent="1">
          <mxGeometry x="-380" y="40" width="810" height="540" as="geometry" />
        </mxCell>
        <mxCell id="0HTOlt0P8ObDnsiu8-Vs-2" value="" style="rounded=0;whiteSpace=wrap;html=1;" vertex="1" parent="1">
          <mxGeometry x="-340" y="200" width="120" height="60" as="geometry" />
        </mxCell>
        <mxCell id="0HTOlt0P8ObDnsiu8-Vs-3" value="" style="rounded=0;whiteSpace=wrap;html=1;" vertex="1" parent="1">
          <mxGeometry x="-340" y="290" width="120" height="60" as="geometry" />
        </mxCell>
        <mxCell id="0HTOlt0P8ObDnsiu8-Vs-4" value="" style="rounded=0;whiteSpace=wrap;html=1;" vertex="1" parent="1">
          <mxGeometry x="-340" y="380" width="120" height="60" as="geometry" />
        </mxCell>
        <mxCell id="0HTOlt0P8ObDnsiu8-Vs-5" value="" style="rounded=0;whiteSpace=wrap;html=1;" vertex="1" parent="1">
          <mxGeometry x="-340" y="470" width="120" height="60" as="geometry" />
        </mxCell>
        <mxCell id="0HTOlt0P8ObDnsiu8-Vs-7" value="" style="html=1;verticalLabelPosition=bottom;labelBackgroundColor=#ffffff;verticalAlign=top;shadow=0;dashed=0;strokeWidth=1;shape=mxgraph.ios7ui.slider;barPos=50.78;strokeColor=#0080f0;strokeColor2=#a0a0a0;" vertex="1" parent="1">
          <mxGeometry x="-170" y="222.5" width="150" height="15" as="geometry" />
        </mxCell>
        <mxCell id="0HTOlt0P8ObDnsiu8-Vs-8" value="" style="html=1;verticalLabelPosition=bottom;labelBackgroundColor=#ffffff;verticalAlign=top;shadow=0;dashed=0;strokeWidth=1;shape=mxgraph.ios7ui.slider;barPos=41.89;strokeColor=#0080f0;strokeColor2=#a0a0a0;" vertex="1" parent="1">
          <mxGeometry x="-170" y="306.25" width="150" height="27.5" as="geometry" />
        </mxCell>
        <mxCell id="0HTOlt0P8ObDnsiu8-Vs-9" value="" style="html=1;verticalLabelPosition=bottom;labelBackgroundColor=#ffffff;verticalAlign=top;shadow=0;dashed=0;strokeWidth=1;shape=mxgraph.ios7ui.slider;barPos=50.78;strokeColor=#0080f0;strokeColor2=#a0a0a0;" vertex="1" parent="1">
          <mxGeometry x="-170" y="402.5" width="150" height="15" as="geometry" />
        </mxCell>
        <mxCell id="0HTOlt0P8ObDnsiu8-Vs-10" value="" style="html=1;verticalLabelPosition=bottom;labelBackgroundColor=#ffffff;verticalAlign=top;shadow=0;dashed=0;strokeWidth=1;shape=mxgraph.ios7ui.slider;barPos=50.78;strokeColor=#0080f0;strokeColor2=#a0a0a0;" vertex="1" parent="1">
          <mxGeometry x="-170" y="492.5" width="150" height="15" as="geometry" />
        </mxCell>
      </root>
    </mxGraphModel>
  </diagram>
</mxfile>
